<?xml version="1.0" encoding="utf-8"?>
<!-- Generator: Adobe Illustrator 25.3.1, SVG Export Plug-In . SVG Version: 6.00 Build 0)  -->
<svg version="1.1" id="Layer_1" xmlns="http://www.w3.org/2000/svg" xmlns:xlink="http://www.w3.org/1999/xlink" x="0px" y="0px"
	 viewBox="0 0 100 100" style="enable-background:new 0 0 100 100;" xml:space="preserve">
<style type="text/css">
	.st0{fill:#3DB7BA;}
</style>
<g>
	<path class="st0" d="M50,34.81l2.29,7.06l2.25,6.91h7.27h7.42l-6,4.36l-5.88,4.27l2.25,6.91l2.29,7.06l-6-4.36L50,62.74l-5.88,4.27
		l-6,4.36l2.29-7.06l2.25-6.91l-5.88-4.27l-6-4.36h7.42h7.27l2.25-6.91L50,34.81 M50,2.45L38.2,38.77H0l30.9,22.45L19.1,97.55
		L50,75.1l30.9,22.45L69.1,61.23L100,38.77H61.8L50,2.45L50,2.45z"/>
</g>
<g>
	<polygon class="st0" points="50,75.1 19.1,97.55 30.9,61.23 0,38.77 38.2,38.77 50,2.45 	"/>
</g>
</svg>